# xmcd
#
# Track frame offsets: 
#        187
#        20522
#        49337
#        69767
#        86945
#        109967
#        129522
#        155535
#        171842
#        198070
#
# Disc length: 2904 seconds
#
# Revision: 0
# Processed by: cddbd v1.5.2PL0 Copyright (c) Steve Scherf et al.
# Submitted via: ExactAudioCopyFreeDBPlugin 1.0
#
DISCID=830b560a
DTITLE=Various Artist - Mua thu yeu em
DYEAR=1900
DGENRE=
TTITLE0=Vu Khanh - Mua thu paris
TTITLE1=Ngoc Lan - saigon vinh biet tinh ta
TTITLE2=hai Ly - Uot mi
TTITLE3=Duy Quang - Bao rot
TTITLE4=Kim Anh - Bao gio biet tuong tu
TTITLE5=Nhu Mai - Hoi tiec
TTITLE6=Kieu Nga - Chuyen tinh ko suy tu
TTITLE7=Ha Thanh Lich - Hoang hon nho nguoi
TTITLE8=Hoang Liem - Muoi nam yeu em
TTITLE9=Tuan Anh - Ai len xu hoa dao
EXTD=
EXTT0=
EXTT1=
EXTT2=
EXTT3=
EXTT4=
EXTT5=
EXTT6=
EXTT7=
EXTT8=
EXTT9=
PLAYORDER=
